<?xml version="1.0"?>
<!--Icons from directory ""-->
<svg xmlns="http://www.w3.org/2000/svg" width="144" height="2404" viewBox="0 0 144 2404"><svg width="19" height="14" id="1check_svg" y="0"><g fill="none" fill-rule="evenodd"><path d="M0 0h19v14H0z"/><path fill="#000" fill-rule="nonzero" d="M7.968 10.05l6.543-7.478a.65.65 0 0 1 1.041.771l-.063.085-7 8a.65.65 0 0 1-.864.103l-.085-.071-3-3a.65.65 0 0 1 .84-.988l.08.068 2.508 2.51 6.543-7.478-6.543 7.477z"/></g></svg><svg width="19" height="14" id="2checks_svg" y="14"><g fill="none" fill-rule="evenodd"><path d="M0 0h19v14H0z"/><path fill="#000" fill-rule="nonzero" d="M4.968 10.05l6.543-7.478a.65.65 0 0 1 1.041.771l-.063.085-7 8a.65.65 0 0 1-.864.103l-.085-.071-3-3a.65.65 0 0 1 .84-.988l.08.068 2.508 2.51 6.543-7.478-6.543 7.477zm5 0l6.543-7.478a.65.65 0 0 1 1.041.771l-.063.085-7 8a.65.65 0 0 1-.864.103l-.085-.071-1-1a.65.65 0 0 1 .84-.988l.08.068.508.51 6.543-7.478-6.543 7.477z"/></g></svg><svg width="24" height="24" id="FullScreen_svg" y="28"><g fill="none" fill-rule="evenodd"><path d="M0 0h24v24H0z"/><path fill="#000" fill-rule="nonzero" d="M5 14a1 1 0 0 1 1 1v3h3a1 1 0 0 1 0 2H5a1 1 0 0 1-1-1v-4a1 1 0 0 1 1-1zm14 0a1 1 0 0 1 .993.883L20 15v4a1 1 0 0 1-.883.993L19 20h-4a1 1 0 0 1-.117-1.993L15 18h3v-3a1 1 0 0 1 1-1zM5 4h4a1 1 0 0 1 .117 1.993L9 6H6v3a1 1 0 0 1-1.993.117L4 9V5a1 1 0 0 1 .883-.993L5 4h4-4zm14 0a1 1 0 0 1 1 1v4a1 1 0 0 1-2 0V6h-3a1 1 0 0 1 0-2h4z"/></g></svg><svg width="24" height="24" id="activesessions_svg" y="52"><g fill="none" fill-rule="evenodd"><path d="M0 0h24v24H0z"/><path fill="#000" fill-rule="nonzero" d="M4 2h14a4 4 0 0 1 3.995 3.8L22 6v2a1 1 0 0 1-1.993.117L20 8V6a2 2 0 0 0-1.85-1.995L18 4H4a2 2 0 0 0-1.995 1.85L2 6v8a2 2 0 0 0 1.85 1.995L4 16h10a1 1 0 0 1 .117 1.993L14 18h-2v2h2a1 1 0 0 1 .993.883L15 21a1 1 0 0 1-.883.993L14 22H8a1 1 0 0 1-.117-1.993L8 20h2v-2H4a4 4 0 0 1-3.995-3.8L0 14V6a4 4 0 0 1 3.8-3.995L4 2h14H4zm18 9a2 2 0 0 1 2 2v7a2 2 0 0 1-2 2h-3a2 2 0 0 1-2-2v-7a2 2 0 0 1 2-2h3zm0 2h-3v7h3v-7z"/></g></svg><svg width="24" height="24" id="add_svg" y="76"><g fill="none" fill-rule="evenodd"><path d="M0 0h24v24H0z"/><path fill="#000" fill-rule="nonzero" d="M11.883 4.007L12 4a1 1 0 0 1 .993.883L13 5v6h6a1 1 0 0 1 .993.883L20 12a1 1 0 0 1-.883.993L19 13h-6v6a1 1 0 0 1-.883.993L12 20a1 1 0 0 1-.993-.883L11 19v-6H5a1 1 0 0 1-.993-.883L4 12a1 1 0 0 1 .883-.993L5 11h6V5a1 1 0 0 1 .883-.993L12 4l-.117.007z"/></g></svg><svg width="24" height="24" id="addmember_filled_svg" y="100"><g fill="none" fill-rule="evenodd"><path d="M0 0h24v24H0z"/><path fill="#000" fill-rule="nonzero" d="M9 13c3.323 0 5.753.834 7.222 2.57.502.593.778 1.345.778 2.123V19a2 2 0 0 1-2 2H3a2 2 0 0 1-2-2v-1.307c0-.778.276-1.53.778-2.123C3.247 13.834 5.678 13 9 13zm9.883-5.993L19 7a1 1 0 0 1 .993.883L20 8v2h2a1 1 0 0 1 .993.883L23 11a1 1 0 0 1-.883.993L22 12h-2v2a1 1 0 0 1-.883.993L19 15a1 1 0 0 1-.993-.883L18 14v-2h-2a1 1 0 0 1-.993-.883L15 11a1 1 0 0 1 .883-.993L16 10h2V8a1 1 0 0 1 .883-.993L19 7l-.117.007zM9 3a4 4 0 1 1 0 8 4 4 0 0 1 0-8z"/></g></svg><svg width="24" height="24" id="adduser_svg" y="124"><g fill="none" fill-rule="evenodd"><path d="M0 0h24v24H0z"/><path fill="#000" fill-rule="nonzero" d="M9 13c3.323 0 5.753.834 7.222 2.57.502.593.778 1.345.778 2.123v.807a2.5 2.5 0 0 1-2.5 2.5h-11A2.5 2.5 0 0 1 1 18.5v-.807c0-.778.276-1.53.778-2.123C3.247 13.834 5.678 13 9 13zm0 2c-2.789 0-4.665.644-5.696 1.862a1.286 1.286 0 0 0-.304.83v.808a.5.5 0 0 0 .5.5h11a.5.5 0 0 0 .5-.5v-.807c0-.305-.108-.599-.304-.831C13.665 15.644 11.789 15 9 15zm9.883-7.993L19 7a1 1 0 0 1 .993.883L20 8v2h2a1 1 0 0 1 .993.883L23 11a1 1 0 0 1-.883.993L22 12h-2v2a1 1 0 0 1-.883.993L19 15a1 1 0 0 1-.993-.883L18 14v-2h-2a1 1 0 0 1-.993-.883L15 11a1 1 0 0 1 .883-.993L16 10h2V8a1 1 0 0 1 .883-.993L19 7l-.117.007zM9 3a4 4 0 1 1 0 8 4 4 0 0 1 0-8zm0 2a2 2 0 1 0 0 4 2 2 0 0 0 0-4z"/></g></svg><svg width="24" height="24" id="admin_svg" y="148"><g fill="none" fill-rule="evenodd"><path d="M0 0h24v24H0z"/><path fill="#000" fill-rule="nonzero" d="M12.006.5c.378 0 .66.058 1.205.215l1.107.382 1.104.39c1.162.414 2.453.883 3.474 1.263l1.009.381C21.383 3.707 22 4.457 22 5.986v8.178l-.005.4c-.099 3.453-1.566 4.877-8.03 8.543l-.739.417c-.395.216-.832.351-1.22.351-.39 0-.826-.135-1.235-.359l-1.427-.819-1.001-.588c-5.094-3.034-6.256-4.44-6.338-7.56L2 14.163V5.986c0-1.463.582-2.24 1.907-2.781l.737-.28 1.172-.43 5.018-1.79C11.3.565 11.624.5 12.006.5zM12 18c-2.082 0-3.762.299-5.042.879.938.645 2.165 1.386 3.764 2.306l1.023.585c.073.04.147.07.197.087l.063.018.061-.017.121-.049c.023-.01.046-.022.068-.034l.687-.387c1.777-1.006 3.118-1.804 4.125-2.498-1.284-.587-2.972-.89-5.067-.89zm.005-15.5c-.113 0-.241.021-.413.066l-.137.039-5.457 1.952-1.323.493-.218.09c-.381.172-.449.313-.457.734v8.438l.008.29c.051 1.165.34 2.007 1.277 2.941a.955.955 0 0 1 .23-.176C7.176 16.447 9.338 16 12.001 16c2.662 0 4.825.448 6.484 1.367a1 1 0 0 1 .24.185C19.757 16.512 20 15.563 20 14.164V5.986c0-.547-.042-.667-.563-.887l-.254-.102-1.11-.419-1.783-.654a276.82 276.82 0 0 0-2.419-.865l-1.255-.435-.242-.066a1.452 1.452 0 0 0-.368-.058zM12 6a4 4 0 1 1 0 8 4 4 0 0 1 0-8zm0 2a2 2 0 1 0 0 4 2 2 0 0 0 0-4z"/></g></svg><svg width="24" height="24" id="animals_svg" y="172"><g fill="none" fill-rule="evenodd"><path d="M0 0h24v24H0z"/><path fill="#000" fill-rule="nonzero" d="M19 1.5c2.272 0 3.854 3.84 3.035 8.411.261.7.502 1.465.678 2.182l.402-.076a1 1 0 0 1 .484 1.937l-.114.029-.487.091-.003.168c-.023.6-.13 1.188-.31 1.758h.615a1 1 0 0 1 .117 1.993L23.3 18h-1.594c-1.964 2.93-5.877 5-9.706 5-3.829 0-7.742-2.07-9.706-5H.7a1 1 0 0 1-.117-1.993L.7 16h.616A6.598 6.598 0 0 1 1 14.074l-.485-.091a1 1 0 0 1 .255-1.98l.115.014.402.077c.176-.718.417-1.483.678-2.183C1.206 5.542 3.066 1.5 5 1.5c.407 0 .647.125 1.055.477l.267.239 1.215 1.16.292.267c.292.26.541.46.746.595l.172.105.09.044C10.117 4.093 10.817 4 12 4c1.07 0 1.747.076 2.866.323l.275.062.045-.02.118-.064c.188-.112.421-.287.697-.524l.172-.15c.136-.12.28-.253.442-.406l1.062-1.008.268-.238c.408-.35.65-.475 1.055-.475zm.126 2.1l-.104.093-.944.896-.422.395-.345.305c-1.055.912-1.775 1.302-2.537 1.06C13.592 6.077 13.033 6 12 6c-1.02 0-1.577.074-2.732.34-.816.253-1.54-.136-2.573-1.03l-.356-.317L6 4.676l-.996-.955c-.23.267-.46.63-.655 1.065-.589 1.31-.772 3.002-.368 5.022l.057.287-.202.524c-.219.59-.426 1.247-.579 1.847l2.928.551a1 1 0 0 1-.255 1.98l-.115-.014-2.79-.526c.055.524.205 1.042.434 1.542L6 16a1 1 0 0 1 .117 1.993L6 18H4.875c1.743 1.767 4.464 3 7.125 3 2.661 0 5.382-1.233 7.125-3H18a1 1 0 0 1-.117-1.993L18 16h2.541c.23-.501.379-1.019.435-1.543l-2.79.526a1 1 0 0 1-.485-1.937l.114-.029 2.928-.55c-.153-.601-.36-1.259-.58-1.85l-.2-.523.056-.287c.417-2.085.302-3.811-.198-5.06a3.848 3.848 0 0 0-.634-1.082l-.06-.066zM11.57 14h.931l.106.005.112.019.107.03.106.044.055.028.046.027.072.05.097.084c.04.04.076.08.106.123l.044.064c.02.033.038.066.054.1l.038.094.036.127.018.119.003.086-.006.11-.027.147-.018.06-.435 1.302.027.08A.5.5 0 0 0 14 16.5a1 1 0 0 1 2 0 2.5 2.5 0 0 1-4.001 2A2.5 2.5 0 0 1 8 16.5a1 1 0 0 1 2 0 .5.5 0 0 0 .96.198l.026-.079-.413-1.237a1.05 1.05 0 0 1 .664-1.328l.112-.03.078-.014.142-.01zm3.931-4a1.5 1.5 0 1 1 0 3 1.5 1.5 0 0 1 0-3zm-7 0a1.5 1.5 0 1 1 0 3 1.5 1.5 0 0 1 0-3zm6.716-5.598l-.075-.017-.037.014.042-.004.038.002.032.005z"/></g></svg><svg width="24" height="24" id="archive_svg" y="196"><g fill="none" fill-rule="evenodd"><path d="M0 0h24v24H0z"/><path fill="#000" fill-rule="nonzero" d="M7.5 1h9a4 4 0 0 1 3.053 1.416l.147.184 1.5 2a4 4 0 0 1 .792 2.141L22 7v11a4 4 0 0 1-4 4H6a4 4 0 0 1-4-4V7a4 4 0 0 1 .651-2.188L2.8 4.6l1.5-2a4 4 0 0 1 2.965-1.593L7.5 1h9-9zM18 7H6a2 2 0 0 0-2 2v9a2 2 0 0 0 2 2h12a2 2 0 0 0 2-2V9a2 2 0 0 0-2-2zm-9.707 4.293a1 1 0 0 1 1.32-.083l.094.083L12 13.586l2.293-2.293a1 1 0 0 1 1.497 1.32l-.083.094-3 3a1 1 0 0 1-1.32.083l-.094-.083-3-3a1 1 0 0 1 0-1.414zM16.5 3h-9a2 2 0 0 0-1.492.668L5.9 3.8 4.88 5.159A4.002 4.002 0 0 1 6 5h12c.388 0 .764.055 1.119.159L18.1 3.8a2 2 0 0 0-1.43-.793L16.5 3z"/></g></svg><svg width="24" height="24" id="attach_svg" y="220"><g fill="none" fill-rule="evenodd"><path d="M0 0h24v24H0z"/><path fill="#000" fill-rule="nonzero" d="M11.658 8.687l-3.764 3.84a3.552 3.552 0 0 0 0 4.973 3.453 3.453 0 0 0 4.734.186l.18-.168 6.585-6.717a5.466 5.466 0 0 0 0-7.653 5.293 5.293 0 0 0-7.302-.245l-.256.245-6.568 6.699a7.38 7.38 0 0 0 0 10.332 7.132 7.132 0 0 0 9.89.284l.295-.284 3.764-3.839a1 1 0 0 0-1.428-1.4l-3.836 3.911a5.132 5.132 0 0 1-7.257-.072 5.38 5.38 0 0 1 0-7.532l6.614-6.745a3.292 3.292 0 0 1 4.656.046 3.466 3.466 0 0 1 0 4.852l-6.589 6.72a1.453 1.453 0 0 1-2.054-.02 1.552 1.552 0 0 1 0-2.173l3.764-3.84a1 1 0 0 0-1.428-1.4z"/></g></svg><svg width="54" height="54" id="avatar_archivedchats_svg" y="244"><g fill="none" fill-rule="evenodd"><path d="M0 0h54v54H0z"/><path fill="#000" fill-rule="nonzero" d="M21.699 15H32.3a4 4 0 0 1 3.312 1.756l.118.186 1.699 2.831a4 4 0 0 1 .563 1.817l.007.241V35a4 4 0 0 1-4 4H20a4 4 0 0 1-4-4V21.831a4 4 0 0 1 .452-1.848l.118-.21 1.699-2.831a4 4 0 0 1 3.209-1.936l.22-.006h10.603H21.7zM34 21H20a2 2 0 0 0-2 2v12a2 2 0 0 0 2 2h14a2 2 0 0 0 2-2V23a2 2 0 0 0-2-2zm-10.707 6.293a1 1 0 0 1 1.32-.083l.094.083L27 29.586l2.293-2.293a1 1 0 0 1 1.497 1.32l-.083.094-3 3a1 1 0 0 1-1.32.083l-.094-.083-3-3a1 1 0 0 1 0-1.414zM32.3 17H21.7a2 2 0 0 0-1.627.836l-.088.135-.652 1.084c.217-.036.44-.055.668-.055h14c.227 0 .45.019.668.055l-.652-1.084a2 2 0 0 0-1.553-.965L32.3 17z"/></g></svg><svg width="54" height="54" id="avatar_deletedaccount_svg" y="298"><g fill="none" fill-rule="evenodd"><path d="M0 0h54v54H0z"/><path fill="#000" fill-rule="nonzero" d="M27 14c5.523 0 10 4.477 10 10v14c0 .89-1.077 1.337-1.707.707L33 36.414l-2.293 2.293a1 1 0 0 1-1.414 0L27 36.414l-2.293 2.293a1 1 0 0 1-1.414 0L21 36.414l-2.293 2.293c-.63.63-1.707.184-1.707-.707V24c0-5.523 4.477-10 10-10zm0 2a8 8 0 0 0-8 8v11.586l1.293-1.293a1 1 0 0 1 1.414 0L24 36.586l2.293-2.293a1 1 0 0 1 1.414 0L30 36.586l2.293-2.293a1 1 0 0 1 1.414 0L35 35.586V24a8 8 0 0 0-8-8zm-4 6a2 2 0 1 1 0 4 2 2 0 0 1 0-4zm8 0a2 2 0 1 1 0 4 2 2 0 0 1 0-4z"/></g></svg><svg width="54" height="54" id="avatar_savedmessages_svg" y="352"><g fill="none" fill-rule="evenodd"><path d="M0 0h54v54H0z"/><path fill="#000" fill-rule="nonzero" d="M18.486 38.874A1 1 0 0 1 17 38V19a4 4 0 0 1 4-4h12a4 4 0 0 1 4 4v19a1 1 0 0 1-1.486.874L27 34.144l-8.514 4.73zM35 19a2 2 0 0 0-2-2H21a2 2 0 0 0-2 2v17.3l7.514-4.174a1 1 0 0 1 .972 0L35 36.3V19z"/></g></svg><svg width="24" height="24" id="back_svg" y="406"><g fill="none" fill-rule="evenodd"><path d="M0 0h24v24H0z"/><path fill="#000" fill-rule="nonzero" d="M4.293 11.293l7-7a1 1 0 0 1 1.497 1.32l-.083.094L7.414 11H19a1 1 0 0 1 .993.883L20 12a1 1 0 0 1-.883.993L19 13H7.414l5.293 5.293a1 1 0 0 1 .083 1.32l-.083.094a1 1 0 0 1-1.32.083l-.094-.083-7-7a1 1 0 0 1-.083-1.32l.083-.094 7-7-7 7z"/></g></svg><svg width="24" height="24" id="camera_svg" y="430"><g fill="none" fill-rule="evenodd"><path d="M0 0h24v24H0z"/><path fill="#000" fill-rule="nonzero" d="M14.586 2A2 2 0 0 1 16 2.586L17.414 4H19a3 3 0 0 1 3 3v11a3 3 0 0 1-3 3H5a3 3 0 0 1-3-3V7a3 3 0 0 1 3-3h1.586L8 2.586A2 2 0 0 1 9.414 2h5.172zm0 2H9.414L8 5.414A2 2 0 0 1 6.586 6H5a1 1 0 0 0-1 1v11a1 1 0 0 0 1 1h14a1 1 0 0 0 1-1V7a1 1 0 0 0-1-1h-1.586A2 2 0 0 1 16 5.414L14.586 4zM12 7a5 5 0 1 1 0 10 5 5 0 0 1 0-10zm0 2a3 3 0 1 0 0 6 3 3 0 0 0 0-6z"/></g></svg><svg width="24" height="24" id="cameraadd_svg" y="454"><g fill="none" fill-rule="evenodd"><path d="M0 0h24v24H0z"/><path fill="#000" fill-rule="nonzero" d="M19.883 16.007L20 16a1 1 0 0 1 .993.883L21 17v2h2a1 1 0 0 1 .993.883L24 20a1 1 0 0 1-.883.993L23 21h-2v2a1 1 0 0 1-.883.993L20 24a1 1 0 0 1-.993-.883L19 23v-2h-2a1 1 0 0 1-.993-.883L16 20a1 1 0 0 1 .883-.993L17 19h2v-2a1 1 0 0 1 .883-.993L20 16l-.117.007zM8.414 2h5.172a2 2 0 0 1 1.284.467l.13.119L16.414 4H18a3 3 0 0 1 2.995 2.824L21 7v5a1 1 0 0 1-1.993.117L19 12V7a1 1 0 0 0-.883-.993L18 6h-1.586a2 2 0 0 1-1.284-.467L15 5.414 13.586 4H8.414L7 5.414a2 2 0 0 1-1.238.578L5.586 6H4a1 1 0 0 0-.993.883L3 7v11a1 1 0 0 0 .883.993L4 19h9a1 1 0 0 1 .117 1.993L13 21H4a3 3 0 0 1-2.995-2.824L1 18V7a3 3 0 0 1 2.824-2.995L4 4h1.586L7 2.586a2 2 0 0 1 1.238-.578L8.414 2h5.172-5.172zM11 7a5 5 0 1 1 0 10 5 5 0 0 1 0-10zm0 2a3 3 0 1 0 0 6 3 3 0 0 0 0-6z"/></g></svg><svg width="24" height="24" id="car_svg" y="478"><g fill="none" fill-rule="evenodd"><path d="M0 0h24v24H0z"/><path fill="#000" fill-rule="nonzero" d="M23 20a3 3 0 0 1-6 0H7a3 3 0 0 1-5.995.176L1 20v-7.015a7 7 0 0 1 .368-2.238l1.778-5.268a6 6 0 0 1 4.568-3.977C9.476 1.168 10.9 1 12 1c1.1 0 2.524.168 4.286.502a6 6 0 0 1 4.568 3.977l1.778 5.268A7 7 0 0 1 23 12.985V20zm-20-.535V20a1 1 0 0 0 1.993.117L5 20a3.982 3.982 0 0 1-2-.535zM19 20a1 1 0 0 0 2 0l.001-.536A3.982 3.982 0 0 1 19 20zm1.737-8.614l-.22-.65a3 3 0 0 1-1.11.31l-.235.01H4.828a3 3 0 0 1-1.346-.32l-.22.65a5 5 0 0 0-.262 1.6V16a2 2 0 0 0 2 2h14a2 2 0 0 0 2-2v-3.015a5 5 0 0 0-.263-1.599l-.22-.65.22.65zM6.5 13a1.5 1.5 0 1 1 0 3 1.5 1.5 0 0 1 0-3zm11 0a1.5 1.5 0 1 1 0 3 1.5 1.5 0 0 1 0-3zM12 3c-.955 0-2.264.155-3.914.467a4 4 0 0 0-3.045 2.651l-.9 2.664a1 1 0 0 0 .56.265l.127.009h7.3a3.502 3.502 0 0 1 6.743 0h.3a1 1 0 0 0 .609-.207l.077-.069-.898-2.662a4 4 0 0 0-3.045-2.65C14.264 3.154 12.955 3 12 3zm3.5 5.5c-.47 0-.89.216-1.164.554h2.328A1.497 1.497 0 0 0 15.5 8.5z"/></g></svg><svg width="24" height="24" id="channel_svg" y="502"><g fill="none" fill-rule="evenodd"><path d="M0 0h24v24H0z"/><path fill="#000" fill-rule="nonzero" d="M18.5 1.678a2.5 2.5 0 0 1 2.5 2.5v15.644a2.5 2.5 0 0 1-4.09 1.93L12 17.705V19.5a3 3 0 0 1-2.824 2.995L9 22.5a3 3 0 0 1-2.995-2.824L6 19.5v-2.6A5.002 5.002 0 0 1 7 7h4.141l5.77-4.751a2.5 2.5 0 0 1 1.589-.57zM8 17V19.5a1 1 0 0 0 1.993.117L10 19.5V17H8v2.5V17zM18.5 3.68a.5.5 0 0 0-.318.114l-5.77 4.75a2 2 0 0 1-1.27.457H7a3 3 0 0 0 0 6h4.141a2 2 0 0 1 1.272.456l5.77 4.751a.5.5 0 0 0 .817-.385V4.178a.5.5 0 0 0-.5-.5z"/></g></svg><svg width="19" height="14" id="channelviews_svg" y="526"><g fill="none" fill-rule="evenodd"><path d="M0 0h19v14H0z"/><path fill="#000" fill-rule="nonzero" d="M9.5 2C13.538 2 17 6 17 7s-3.462 5-7.5 5S2 8 2 7s3.462-5 7.5-5zm0 1.5a3.5 3.5 0 1 0 0 7 3.5 3.5 0 0 0 0-7zm0 1.75a1.75 1.75 0 1 1 0 3.5 1.75 1.75 0 0 1 0-3.5z"/></g></svg><svg width="144" height="144" id="chatsplaceholder_svg" y="540"><g fill="none" fill-rule="evenodd"><path d="M0 0h144v144H0z"/><path fill="#000" fill-rule="nonzero" d="M132 42a6.001 6.001 0 0 1 5.96 5.3l.04.7v88.551a6.6 6.6 0 0 1-10.71 5.164l-.557-.497L105.515 120H48a6 6 0 0 1-.7-11.96l.7-.04h48c16.133 0 29.291-12.734 29.973-28.699L126 78V48l.04-.7A6.001 6.001 0 0 1 132 42zM96 6c9.941 0 18 8.059 18 18v54c0 9.941-8.059 18-18 18H38.485l-21.218 21.218A6.6 6.6 0 0 1 6 112.551V24c0-9.941 8.059-18 18-18h72z"/></g></svg><svg width="24" height="24" id="check_svg" y="684"><g fill="none" fill-rule="evenodd"><path d="M0 0h24v24H0z"/><path fill="#000" fill-rule="nonzero" d="M4.707 12.293a1 1 0 1 0-1.414 1.414l5 5a1 1 0 0 0 1.414 0l11-11a1 1 0 1 0-1.414-1.414L9 16.586l-4.293-4.293z"/></g></svg><svg width="24" height="24" id="checkbox_svg" y="708"><g fill="none" fill-rule="evenodd"><path d="M0 0h24v24H0z"/><path fill="#000" fill-rule="nonzero" d="M18 3a3 3 0 0 1 3 3v12a3 3 0 0 1-3 3H6a3 3 0 0 1-3-3V6a3 3 0 0 1 3-3h12zm0 2H6a1 1 0 0 0-1 1v12a1 1 0 0 0 1 1h12a1 1 0 0 0 1-1V6a1 1 0 0 0-1-1zm-7.5 8.586l5.293-5.293a1 1 0 0 1 1.497 1.32l-.083.094-6 6a1 1 0 0 1-1.32.083l-.094-.083-2.5-2.5a1 1 0 0 1 1.32-1.497l.094.083 1.793 1.793 5.293-5.293-5.293 5.293z"/></g></svg><svg width="24" height="24" id="checkboxblock_svg" y="732"><g fill="none" fill-rule="evenodd"><path d="M0 0h24v24H0z"/><path fill="#000" fill-rule="nonzero" d="M18 3a3 3 0 0 1 3 3v12a3 3 0 0 1-3 3H6a3 3 0 0 1-3-3V6a3 3 0 0 1 3-3h12zm-2 8H8a1 1 0 0 0 0 2h8a1 1 0 0 0 0-2z"/></g></svg><svg width="24" height="24" id="checkboxempty_svg" y="756"><g fill="none" fill-rule="evenodd"><path d="M0 0h24v24H0z"/><path fill="#000" fill-rule="nonzero" d="M6 3h12a3 3 0 0 1 3 3v12a3 3 0 0 1-3 3H6a3 3 0 0 1-3-3V6a3 3 0 0 1 3-3zm0 2a1 1 0 0 0-1 1v12a1 1 0 0 0 1 1h12a1 1 0 0 0 1-1V6a1 1 0 0 0-1-1H6z"/></g></svg><svg width="24" height="24" id="checkboxon_svg" y="780"><g fill="none" fill-rule="evenodd"><path d="M0 0h24v24H0z"/><path fill="#000" fill-rule="nonzero" d="M18 3a3 3 0 0 1 3 3v12a3 3 0 0 1-3 3H6a3 3 0 0 1-3-3V6a3 3 0 0 1 3-3h12zm-.707 4.293L10 14.586l-3.293-3.293a1 1 0 1 0-1.414 1.414l4 4a1 1 0 0 0 1.414 0l8-8a1 1 0 1 0-1.414-1.414z"/></g></svg><svg width="24" height="24" id="close_svg" y="804"><g fill="none" fill-rule="evenodd"><path d="M0 0h24v24H0z"/><path fill="#000" fill-rule="nonzero" d="M5.21 5.387l.083-.094a1 1 0 0 1 1.32-.083l.094.083L12 10.585l5.293-5.292a1 1 0 0 1 1.414 1.414L13.415 12l5.292 5.293a1 1 0 0 1 .083 1.32l-.083.094a1 1 0 0 1-1.32.083l-.094-.083L12 13.415l-5.293 5.292a1 1 0 1 1-1.414-1.414L10.585 12 5.293 6.707a1 1 0 0 1-.083-1.32l.083-.094-.083.094z"/></g></svg><svg width="24" height="24" id="copy_svg" y="828"><g fill="none" fill-rule="evenodd"><path d="M0 0h24v24H0z"/><path fill="#000" fill-rule="nonzero" d="M18 5a3 3 0 0 1 3 3v12a3 3 0 0 1-3 3H9a3 3 0 0 1-3-3V8a3 3 0 0 1 3-3h9zm0 2H9a1 1 0 0 0-1 1v12a1 1 0 0 0 1 1h9a1 1 0 0 0 1-1V8a1 1 0 0 0-1-1zM5 1h10a1 1 0 0 1 .117 1.993L15 3H5a1 1 0 0 0-.993.883L4 4v12a1 1 0 0 1-1.993.117L2 16V4a3 3 0 0 1 2.824-2.995L5 1h10H5z"/></g></svg><svg width="24" height="24" id="data_svg" y="852"><g fill="none" fill-rule="evenodd"><path d="M0 0h24v24H0z"/><path fill="#000" fill-rule="nonzero" d="M12 2.5c4.811 0 8.833 1.716 8.995 4.335L21 7v10c0 2.711-4.089 4.5-9 4.5-4.811 0-8.833-1.716-8.995-4.335L3 17V7c0-2.711 4.089-4.5 9-4.5zM19 17v-2.088c-1.66 1.005-4.196 1.588-7 1.588-2.804 0-5.34-.583-7-1.588V17c0 1.155 3.075 2.5 7 2.5 3.827 0 6.846-1.279 6.994-2.413L19 17v-2.088V17zm-7-5.5c-2.804 0-5.34-.583-7-1.588V12c0 1.155 3.075 2.5 7 2.5 3.827 0 6.846-1.279 6.994-2.413L19 12V9.912c-1.66 1.005-4.196 1.588-7 1.588zm0-7C8.075 4.5 5 5.845 5 7s3.075 2.5 7 2.5 7-1.345 7-2.5-3.075-2.5-7-2.5z"/></g></svg><svg width="24" height="24" id="delete_filled_svg" y="876"><g fill="none" fill-rule="evenodd"><path d="M0 0h24v24H0z"/><path fill="#000" fill-rule="nonzero" d="M18 6.5a1 1 0 0 1 1 1V18a3 3 0 0 1-3 3H8a3 3 0 0 1-3-3V7.5a1 1 0 0 1 1-1h12zM10 2h4a1 1 0 0 1 .608.206l.1.087.707.707H19a1 1 0 0 1 .993.883L20 4a1 1 0 0 1-.883.993L19 5H5a1 1 0 0 1-.117-1.993L5 3h3.584l.709-.707a1 1 0 0 1 .576-.284L10 2h4-4z"/></g></svg><svg width="24" height="24" id="delete_svg" y="900"><g fill="none" fill-rule="evenodd"><path d="M0 0h24v24H0z"/><path fill="#000" fill-rule="nonzero" d="M18 6.5a1 1 0 0 1 1 1V18a3 3 0 0 1-3 3H8a3 3 0 0 1-3-3V7.5a1 1 0 0 1 1-1h12zm-1 2H7V18a1 1 0 0 0 1 1h8a1 1 0 0 0 1-1V8.5zM10 2h4a1 1 0 0 1 .608.206l.1.087.707.707H19a1 1 0 0 1 .993.883L20 4a1 1 0 0 1-.883.993L19 5H5a1 1 0 0 1-.117-1.993L5 3h3.584l.709-.707a1 1 0 0 1 .576-.284L10 2h4-4z"/></g></svg><svg width="24" height="24" id="deleteuser_svg" y="924"><g fill="none" fill-rule="evenodd"><path d="M0 0h24v24H0z"/><path fill="#000" fill-rule="nonzero" d="M9 13c3.323 0 5.753.834 7.222 2.57.502.593.778 1.345.778 2.123v.807a2.5 2.5 0 0 1-2.5 2.5h-11A2.5 2.5 0 0 1 1 18.5v-.807c0-.778.276-1.53.778-2.123C3.247 13.834 5.678 13 9 13zm0 2c-2.789 0-4.665.644-5.696 1.862a1.286 1.286 0 0 0-.304.83v.808a.5.5 0 0 0 .5.5h11a.5.5 0 0 0 .5-.5v-.807c0-.305-.108-.599-.304-.831C13.665 15.644 11.789 15 9 15zm7-5h6a1 1 0 0 1 .117 1.993L22 12h-6a1 1 0 0 1-.117-1.993L16 10h6-6zM9 3a4 4 0 1 1 0 8 4 4 0 0 1 0-8zm0 2a2 2 0 1 0 0 4 2 2 0 0 0 0-4z"/></g></svg><svg width="24" height="24" id="document_svg" y="948"><g fill="none" fill-rule="evenodd"><path d="M0 0h24v24H0z"/><path fill="#000" fill-rule="nonzero" d="M12.172 2a3 3 0 0 1 2.12.879l6.83 6.828A3 3 0 0 1 22 11.828V19a3 3 0 0 1-3 3H5a3 3 0 0 1-3-3V5a3 3 0 0 1 3-3h7.172zM11 4H5a1 1 0 0 0-1 1v14a1 1 0 0 0 1 1h14a1 1 0 0 0 1-1v-6h-6a3 3 0 0 1-2.995-2.824L11 10V4zm8.586 7L13 4.414V10a1 1 0 0 0 .883.993L14 11h5.586z"/></g></svg><svg width="24" height="24" id="down_svg" y="972"><g fill="none" fill-rule="evenodd"><path d="M0 0h24v24H0z"/><path fill="#000" fill-rule="nonzero" d="M12 14.586l6.293-6.293a1 1 0 0 1 1.414 1.414l-7 7a1 1 0 0 1-1.414 0l-7-7a1 1 0 0 1 1.414-1.414L12 14.586z"/></g></svg><svg width="24" height="24" id="download_svg" y="996"><g fill="none" fill-rule="evenodd"><path d="M0 0h24v24H0z"/><path fill="#000" fill-rule="nonzero" d="M5 19h14a1 1 0 0 1 .117 1.993L19 21H5a1 1 0 0 1-.117-1.993L5 19h14H5zm6.883-15.993L12 3a1 1 0 0 1 .993.883L13 4v9.585l3.293-3.292a1 1 0 0 1 1.32-.083l.094.083a1 1 0 0 1 .083 1.32l-.083.094-5 5a1 1 0 0 1-1.32.083l-.094-.083-5-5a1 1 0 0 1 1.32-1.497l.094.083L11 13.585V4a1 1 0 0 1 .883-.993L12 3l-.117.007z"/></g></svg><svg width="24" height="24" id="eats_svg" y="1020"><g fill="none" fill-rule="evenodd"><path d="M0 0h24v24H0z"/><path fill="#000" fill-rule="nonzero" d="M8.176 1.434a1 1 0 0 1 1.39-.258c.784.539 1.527 1.281 2.234 2.224.22.292.41.569.57.832.176-.292.409-.609.694-.952.957-1.148 2.29-1.815 4-2-.207 1.14-.607 2.103-1.201 2.89l.15-.02c1.42-.148 2.638.114 3.623.914l.384.33c5.173 4.601 2.956 15.335-3.704 17.555l-.1.027c-1.03.229-1.712.184-2.558-.086l-.59-.204c-.413-.138-.674-.186-1.068-.186s-.655.048-1.068.186l-.59.205c-.846.27-1.528.315-2.56.085l-.098-.027C.898 20.687-1.216 9.692 4.445 5.168c1.815-1.21 3.313-1.306 5.387-.731l.312.09c-.565-.743-1.137-1.309-1.71-1.702a1 1 0 0 1-.258-1.39zM5.625 6.781c-4.329 3.463-2.616 12.45 2.643 14.254.612.132.947.115 1.446-.043l.195-.066.425-.148A4.82 4.82 0 0 1 12 20.5c.631 0 1.078.083 1.666.277l.62.214c.436.139.747.169 1.229.086l.218-.042.228-.084c4.973-1.944 6.664-10.487 2.74-14.052l-.321-.276c-.556-.438-1.243-.58-2.158-.483-.452.047-.903.14-1.56.312l-1.216.324-.351.087c-.416.098-.643.128-.925.135L11.894 7c-.409-.006-.676-.053-1.32-.245L9.525 6.43c-1.69-.503-2.672-.465-3.901.35z"/></g></svg><svg width="24" height="24" id="edit_svg" y="1044"><g fill="none" fill-rule="evenodd"><path d="M0 0h24v24H0z"/><path fill="#000" fill-rule="nonzero" d="M7.707 20.707A1 1 0 0 1 7 21H4a1 1 0 0 1-1-1v-3a1 1 0 0 1 .293-.707L16.586 3a2 2 0 0 1 2.701-.117l.127.117L21 4.586a2 2 0 0 1 .117 2.701L21 7.414 7.707 20.707zM5 17.414V19h1.586l10-10L15 7.414l-10 10zm13-13L16.414 6 18 7.585 19.586 6 18 4.414z"/></g></svg><svg width="24" height="24" id="eye1_svg" y="1068"><g fill="none" fill-rule="evenodd"><path d="M0 0h24v24H0z"/><path fill="#000" fill-rule="nonzero" d="M12.004 5.5C17.85 5.5 22 10.46 22 12s-4.127 6.5-9.996 6.5C6.179 18.5 2 13.54 2 12s4.209-6.5 10.004-6.5zM12 8a4 4 0 1 0 0 8 4 4 0 0 0 0-8zm0 2.5a1.5 1.5 0 1 1 0 3 1.5 1.5 0 0 1 0-3z"/></g></svg><svg width="24" height="24" id="eye2_svg" y="1092"><g fill="none" fill-rule="evenodd"><path d="M0 0h24v24H0z"/><path fill="#000" fill-rule="nonzero" d="M3.247 4.341a1 1 0 0 1 1.312-.17l.1.076 16 14a1 1 0 0 1-1.218 1.582l-.1-.076-2.663-2.33c-1.366.646-2.944 1.077-4.674 1.077C6.179 18.5 2 13.54 2 12c0-.865 1.327-2.807 3.516-4.345L3.34 5.753a1 1 0 0 1-.094-1.412zM8 12a4 4 0 0 0 6.256 3.304l-2.074-1.815a1.5 1.5 0 0 1-1.681-1.472l-2.075-1.815A3.983 3.983 0 0 0 8 12zm4.004-6.5C17.85 5.5 22 10.46 22 12c0 .636-.703 1.854-1.94 3.065l-4.093-3.58a4.001 4.001 0 0 0-3.765-3.48L11.984 8l-2.5-2.187c.797-.199 1.64-.313 2.52-.313z"/></g></svg><svg width="24" height="24" id="flag_svg" y="1116"><g fill="none" fill-rule="evenodd"><path d="M0 0h24v24H0z"/><path fill="#000" fill-rule="nonzero" d="M11.729 2.985l.523.286a7.354 7.354 0 0 0 6.12.305l1.257-.502A1 1 0 0 1 21 4.003v10.032a1 1 0 0 1-.634.93l-1.256.494a9.434 9.434 0 0 1-7.815-.417l-.538-.29A6.543 6.543 0 0 0 5 14.654V22a1 1 0 0 1-1.993.117L3 22V4c0-.085.01-.167.03-.246l.04-.118a.995.995 0 0 1 .528-.552l.35-.173a8.527 8.527 0 0 1 7.78.074zM5 4.623L5 12.499l.301-.097a8.544 8.544 0 0 1 6.41.59l.539.293a7.434 7.434 0 0 0 6.129.312l.621-.244V5.478l-.304.111a9.354 9.354 0 0 1-7.408-.565l-.527-.288a6.527 6.527 0 0 0-5.76-.113z"/></g></svg><svg width="24" height="24" id="forward_svg" y="1140"><g fill="none" fill-rule="evenodd"><path d="M0 0h24v24H0z"/><path fill="#000" fill-rule="nonzero" d="M11.803 4.795a1.567 1.567 0 0 1 2.63-1.15l7.795 7.204c.636.588.675 1.579.06 2.243l-.06.059-7.795 7.204a1.567 1.567 0 0 1-2.63-1.15v-2.78c-3.584.184-6.008 1.386-7.37 3.566l-.141.235a1.227 1.227 0 0 1-2.29-.595c-.104-7.385 3.132-11.494 9.48-11.982l.32-.021V4.795zm2 .99V8.6a1 1 0 0 1-1 1c-5.31 0-8.15 2.457-8.702 7.654 1.996-1.909 4.918-2.854 8.702-2.854a1 1 0 0 1 1 1v2.814l6.724-6.213-6.724-6.215z"/></g></svg><svg width="24" height="24" id="group_svg" y="1164"><g fill="none" fill-rule="evenodd"><path d="M0 0h24v24H0z"/><path fill="#000" fill-rule="nonzero" d="M8 13c3.323 0 5.753.834 7.222 2.57.502.593.778 1.345.778 2.123v.807a2.5 2.5 0 0 1-2.5 2.5h-11A2.5 2.5 0 0 1 0 18.5v-.807c0-.778.276-1.53.778-2.123C2.247 13.834 4.678 13 8 13zm9.952 1.034h.116c2.153.146 3.813.754 4.945 1.862.579.566.926 1.325.98 2.128l.007.22v.506a2.25 2.25 0 0 1-2.096 2.245L21.75 21H19a1 1 0 0 1-.117-1.993L19 19h2.75a.25.25 0 0 0 .243-.193L22 18.75v-.507c0-.345-.14-.676-.386-.918-.75-.734-1.965-1.179-3.68-1.295a1 1 0 0 1 .018-1.996zM8 15c-2.789 0-4.665.644-5.696 1.862a1.286 1.286 0 0 0-.304.83v.808a.5.5 0 0 0 .5.5h11a.5.5 0 0 0 .5-.5v-.807c0-.305-.108-.599-.304-.831C12.665 15.644 10.789 15 8 15zm9-10a3.5 3.5 0 1 1 0 7 3.5 3.5 0 0 1 0-7zM8 3a4 4 0 1 1 0 8 4 4 0 0 1 0-8zm9 4a1.5 1.5 0 1 0 0 3 1.5 1.5 0 0 0 0-3zM8 5a2 2 0 1 0 0 4 2 2 0 0 0 0-4z"/></g></svg><svg width="24" height="24" id="help_svg" y="1188"><g fill="none" fill-rule="evenodd"><path d="M0 0h24v24H0z"/><path fill="#000" fill-rule="nonzero" d="M12 1c6.075 0 11 4.925 11 11s-4.925 11-11 11S1 18.075 1 12 5.925 1 12 1zm0 2a9 9 0 1 0 0 18 9 9 0 0 0 0-18zm-.022 12.294c.674 0 1.22.518 1.22 1.18 0 .65-.556 1.178-1.22 1.178-.66 0-1.22-.535-1.22-1.179 0-.654.55-1.179 1.22-1.179zM12.33 6.9c1.949 0 3.389 1.069 3.389 2.756 0 1.015-.432 1.657-1.424 2.36l-.5.341c-.625.438-.857.763-.857 1.232v.124c0 .49-.377.837-.94.837-.592 0-.92-.322-.92-.92v-.135c0-.938.408-1.52 1.34-2.167l.343-.24c.75-.541.963-.834.963-1.349 0-.74-.575-1.228-1.467-1.228-.63 0-1.108.295-1.46.879l-.27.342-.085.098c-.198.211-.4.3-.737.3a.8.8 0 0 1-.806-.816c0-.177.029-.349.087-.548.331-1.088 1.637-1.866 3.344-1.866z"/></g></svg><svg width="24" height="24" id="info_svg" y="1212"><g fill="none" fill-rule="evenodd"><path d="M0 0h24v24H0z"/><path fill="#000" fill-rule="nonzero" d="M12 1c6.075 0 11 4.925 11 11s-4.925 11-11 11S1 18.075 1 12 5.925 1 12 1zm0 2a9 9 0 1 0 0 18 9 9 0 0 0 0-18zm0 8a1 1 0 0 1 .993.883L13 12v5a1 1 0 0 1-1.993.117L11 17v-5a1 1 0 0 1 1-1zm0-4.5a1.5 1.5 0 1 1 0 3 1.5 1.5 0 0 1 0-3z"/></g></svg><svg width="24" height="24" id="lamp_svg" y="1236"><g fill="none" fill-rule="evenodd"><path d="M0 0h24v24H0z"/><path fill="#000" fill-rule="nonzero" d="M12 1a9 9 0 0 1 9 9c0 3.137-1.71 5.687-5 7.59V20a3 3 0 0 1-3 3h-2a3 3 0 0 1-3-3v-2.41l-.304-.18C4.604 15.53 3 13.04 3 10a9 9 0 0 1 9-9zm-2 19a1 1 0 0 0 1 1h2a1 1 0 0 0 1-1h-4zm2-17a7 7 0 0 0-7 7c0 2.496 1.44 4.511 4.468 6.116A1 1 0 0 1 10 17v1h4v-1a1 1 0 0 1 .531-.883C17.561 14.51 19 12.494 19 10a7 7 0 0 0-7-7zm0 7.843l2.435-1.668a1 1 0 0 1 1.23 1.573l-.1.077L13 12.582V15a1 1 0 0 1-.883.993L12 16a1 1 0 0 1-.993-.883L11 15v-2.417l-2.565-1.758a1 1 0 0 1-.324-1.282l.064-.108a1 1 0 0 1 1.282-.324l.108.064L12 10.843l2.435-1.668L12 10.843z"/></g></svg><svg width="24" height="24" id="language_svg" y="1260"><g fill="none" fill-rule="evenodd"><path d="M0 0h24v24H0z"/><path fill="#000" fill-rule="nonzero" d="M12.41 14.616l-2.08-2.056.03-.03A17.52 17.52 0 0 0 14.07 6H16a1 1 0 0 0 0-2h-6V3a1 1 0 1 0-2 0v1H1.995a.995.995 0 1 0 0 1.99H12.17C11.5 7.92 10.44 9.75 9 11.35a15.612 15.612 0 0 1-1.85-2.515l-.181-.319A1 1 0 0 0 6.094 8H5.69a.626.626 0 0 0-.558.912l.092.174A17.72 17.72 0 0 0 7.67 12.56l-4.375 4.315a.997.997 0 0 0-.092 1.316l.09.102a1 1 0 0 0 1.414 0L9 14l2.34 2.34a.7.7 0 0 0 1.15-.25l.154-.414a1 1 0 0 0-.234-1.06zM17.807 10h-.614a1 1 0 0 0-.936.649L12.35 21.064A.693.693 0 0 0 13 22h.306a1 1 0 0 0 .937-.65L15.12 19h4.75l.886 2.352a1 1 0 0 0 .936.648H22a.693.693 0 0 0 .649-.936l-3.906-10.415a1 1 0 0 0-.936-.649zm-.307 2.67L19.12 17h-3.24l1.62-4.33z"/></g></svg><svg width="36" height="36" id="largepause_svg" y="1284"><g fill="none" fill-rule="evenodd"><path d="M0 0h36v36H0z"/><path fill="#000" fill-rule="nonzero" d="M14 7a1 1 0 0 1 1 1v20a1 1 0 0 1-1 1H9a1 1 0 0 1-1-1V8a1 1 0 0 1 1-1h5zm13 0a1 1 0 0 1 1 1v20a1 1 0 0 1-1 1h-5a1 1 0 0 1-1-1V8a1 1 0 0 1 1-1h5z"/></g></svg><svg width="36" height="36" id="largeplay_svg" y="1320"><g fill="none" fill-rule="evenodd"><path d="M0 0h36v36H0z"/><path fill="#000" fill-rule="nonzero" d="M11.545 6.004L28.71 17.162a1 1 0 0 1 0 1.676L11.545 29.996A1 1 0 0 1 10 29.157V6.843a1 1 0 0 1 1.545-.839z"/></g></svg><svg width="24" height="24" id="location_svg" y="1356"><g fill="none" fill-rule="evenodd"><path d="M0 0h24v24H0z"/><path fill="#000" fill-rule="nonzero" d="M12 1c4.422 0 8 3.578 8 8 0 3.664-2.714 8.216-6.462 12.75-.8.96-2.266.96-3.067 0C6.742 17.262 4 12.667 4 9c0-4.422 3.578-8 8-8zm0 2C8.682 3 6 5.682 6 9c0 2.93 2.445 7.111 5.717 11.117l.288.348.286-.349C15.578 16.073 18 11.927 18 9c0-3.318-2.682-6-6-6zm0 4a2 2 0 1 1 0 4 2 2 0 0 1 0-4z"/></g></svg><svg width="24" height="24" id="lock_svg" y="1380"><g fill="none" fill-rule="evenodd"><path d="M0 0h24v24H0z"/><path fill="#000" fill-rule="nonzero" d="M12 1a5 5 0 0 1 4.995 4.783L17 6v2a3 3 0 0 1 3 3v8a3 3 0 0 1-3 3H7a3 3 0 0 1-3-3v-8a3 3 0 0 1 3-3V6a5 5 0 0 1 5-5zm5 9H7a1 1 0 0 0-1 1v8a1 1 0 0 0 1 1h10a1 1 0 0 0 1-1v-8a1 1 0 0 0-1-1zm-5 3.5a1.5 1.5 0 1 1 0 3 1.5 1.5 0 0 1 0-3zm.176-10.495L12 3a3 3 0 0 0-2.995 2.824L9 6v2h6V6a3 3 0 0 0-2.824-2.995L12 3l.176.005z"/></g></svg><svg width="24" height="24" id="logout_svg" y="1404"><g fill="none" fill-rule="evenodd"><path d="M0 0h24v24H0z"/><path fill="#000" fill-rule="nonzero" d="M6 2h5a4 4 0 0 1 4 4 1 1 0 0 1-1.993.117l-.012-.266a2 2 0 0 0-1.838-1.845L11 4H6a2 2 0 0 0-1.995 1.85L4 6v12a2 2 0 0 0 1.85 1.995L6 20h5a2 2 0 0 0 1.995-1.85l.012-.267A1 1 0 0 1 15 18a4 4 0 0 1-3.8 3.995L11 22H6a4 4 0 0 1-3.995-3.8L2 18V6a4 4 0 0 1 3.8-3.995L6 2h5-5zm12.707 5.293l4 4c.036.035.068.073.097.112l.071.11.054.114.035.105.025.118.01.089v.118l-.006.058-.02.117-.033.108-.034.081-.052.098-.074.104-.073.082-4 4a1 1 0 0 1-1.414-1.414L19.585 13H13a1 1 0 0 1-.993-.883L12 12a1 1 0 0 1 .883-.993L13 11h6.585l-2.292-2.293a1 1 0 1 1 1.414-1.414z"/></g></svg><svg width="24" height="24" id="menu_svg" y="1428"><g fill="none" fill-rule="evenodd"><path d="M0 0h24v24H0z"/><path fill="#000" fill-rule="nonzero" d="M4 16h16a1 1 0 0 1 .117 1.993L20 18H4a1 1 0 0 1-.117-1.993L4 16h16H4zm0-5h16a1 1 0 0 1 .117 1.993L20 13H4a1 1 0 0 1-.117-1.993L4 11zm0-5h16a1 1 0 0 1 .117 1.993L20 8H4a1 1 0 0 1-.117-1.993L4 6z"/></g></svg><svg width="24" height="24" id="message_svg" y="1452"><g fill="none" fill-rule="evenodd"><path d="M0 0h24v24H0z"/><path fill="#000" fill-rule="nonzero" d="M7.414 19l-3.536 3.536A1.1 1.1 0 0 1 2 21.76V6a4 4 0 0 1 4-4h12a4 4 0 0 1 4 4v9a4 4 0 0 1-4 4H7.414zM4 19.586l2.205-2.205a1.3 1.3 0 0 1 .92-.381H18a2 2 0 0 0 2-2V6a2 2 0 0 0-2-2H6a2 2 0 0 0-2 2v13.586z"/></g></svg><svg width="24" height="24" id="microphone_svg" y="1476"><g fill="none" fill-rule="evenodd"><path d="M0 0h24v24H0z"/><path fill="#000" fill-rule="nonzero" d="M19 10a1 1 0 0 1 1 1 8.001 8.001 0 0 1-6.999 7.938L13 22a1 1 0 0 1-1.993.117L11 22v-3.062A8.001 8.001 0 0 1 4 11a1 1 0 0 1 2 0 6 6 0 1 0 12 0 1 1 0 0 1 1-1zm-7-8a4 4 0 0 1 4 4v5a4 4 0 1 1-8 0V6a4 4 0 0 1 4-4z"/></g></svg><svg width="24" height="24" id="more_svg" y="1500"><g fill="none" fill-rule="evenodd"><path d="M0 0h24v24H0z"/><path fill="#000" fill-rule="nonzero" d="M12 16a2 2 0 1 1 0 4 2 2 0 0 1 0-4zm0-6a2 2 0 1 1 0 4 2 2 0 0 1 0-4zm0-6a2 2 0 1 1 0 4 2 2 0 0 1 0-4z"/></g></svg><svg width="24" height="24" id="mute_svg" y="1524"><g fill="none" fill-rule="evenodd"><path d="M0 0h24v24H0z"/><path fill="#000" fill-rule="nonzero" d="M11 20h2a1 1 0 0 1 .117 1.993L13 22h-2a1 1 0 0 1-.117-1.993L11 20h2-2zM3.304 2.282a1 1 0 0 1 1.32-.063l.094.085 16.5 17a1 1 0 0 1-1.343 1.477l-.093-.085-1.654-1.704L18 19H4a1 1 0 0 1-.89-1.458l.058-.097L5 14.697V9c0-1.011.215-1.993.624-2.892L3.282 3.696a1 1 0 0 1 .022-1.414zm3.704 6.43L7 9v5.697a2 2 0 0 1-.248.965l-.088.145L5.87 17h10.326L7.17 7.703a4.993 4.993 0 0 0-.162 1.008zM12 2a7 7 0 0 1 6.996 6.76L19 9v3a1 1 0 0 1-1.993.117L17 12V9a5 5 0 0 0-6.76-4.682 1 1 0 0 1-.704-1.872A6.987 6.987 0 0 1 12 2z"/></g></svg><svg width="36" height="36" id="newchannel_svg" y="1548"><g fill="none" fill-rule="evenodd"><path d="M0 0h36v36H0z"/><path fill="#000" fill-rule="nonzero" d="M27.75 2.518a3.75 3.75 0 0 1 3.75 3.75v23.464a3.75 3.75 0 0 1-6.134 2.895L18 26.56v2.69a4.5 4.5 0 0 1-4.236 4.492l-.264.008a4.5 4.5 0 0 1-4.492-4.236L9 29.25v-3.9a7.5 7.5 0 0 1 1.5-14.85h6.212l8.654-7.127a3.75 3.75 0 0 1 2.384-.855zM12 25.499v3.751a1.5 1.5 0 0 0 2.99.175l.01-.175V25.5h-3v3.75-3.75zM27.75 5.518a.75.75 0 0 0-.477.17l-8.654 7.128a3 3 0 0 1-1.907.684H10.5a4.5 4.5 0 1 0 0 9h6.212a3 3 0 0 1 1.907.684l8.654 7.127a.75.75 0 0 0 1.227-.579V6.268a.75.75 0 0 0-.75-.75z"/></g></svg><svg width="24" height="24" id="newchat_filled_svg" y="1584"><g fill="none" fill-rule="evenodd"><path d="M0 0h24v24H0z"/><path fill="#000" fill-rule="nonzero" d="M3 17.46v3.04c0 .28.22.5.5.5h3.04c.13 0 .26-.05.35-.15l10.566-10.557a.5.5 0 0 0 .059-.637l-.059-.07-3.042-3.042a.5.5 0 0 0-.708 0L3.15 17.1c-.1.1-.15.22-.15.36zM20.71 7.04a.996.996 0 0 0 0-1.41l-2.34-2.34a.996.996 0 0 0-1.41 0l-1.476 1.476a.5.5 0 0 0 0 .708l3.042 3.042a.5.5 0 0 0 .708 0L20.71 7.04z"/></g></svg><svg width="36" height="36" id="newgroup_svg" y="1608"><g fill="none" fill-rule="evenodd"><path d="M0 0h36v36H0z"/><path fill="#000" fill-rule="nonzero" d="M12 19.5c4.984 0 8.63 1.25 10.834 3.855A4.929 4.929 0 0 1 24 26.539v1.211a3.75 3.75 0 0 1-3.75 3.75H3.75A3.75 3.75 0 0 1 0 27.75v-1.211c0-1.166.413-2.294 1.166-3.184C3.37 20.75 7.016 19.5 12 19.5zm14.927 1.55l.175.002c3.23.218 5.72 1.13 7.418 2.792a4.929 4.929 0 0 1 1.469 3.191l.011.33v.76a3.375 3.375 0 0 1-3.144 3.367l-.231.008H28.5a1.5 1.5 0 0 1-.175-2.99l.175-.01h4.125a.375.375 0 0 0 .365-.289l.01-.086v-.76c0-.518-.209-1.015-.58-1.378-1.124-1.1-2.946-1.768-5.52-1.942a1.5 1.5 0 0 1 .027-2.995zM12 22.5c-4.183 0-6.997.965-8.544 2.793-.294.348-.456.79-.456 1.246v1.211c0 .414.336.75.75.75h16.5a.75.75 0 0 0 .75-.75v-1.211c0-.456-.162-.898-.456-1.246C18.997 23.465 16.184 22.5 12 22.5zm13.5-15a5.25 5.25 0 1 1 0 10.5 5.25 5.25 0 0 1 0-10.5zM12 4.5a6 6 0 1 1 0 12 6 6 0 0 1 0-12zm13.5 6a2.25 2.25 0 1 0 0 4.5 2.25 2.25 0 0 0 0-4.5zM12 7.5a3 3 0 1 0 0 6 3 3 0 0 0 0-6z"/></g></svg><svg width="36" height="36" id="newprivate_svg" y="1644"><g fill="none" fill-rule="evenodd"><path d="M0 0h36v36H0z"/><path fill="#000" fill-rule="nonzero" d="M18 18c5.86 0 10.073 1.555 12.503 4.768.647.856.997 1.9.997 2.973v1.688a4.071 4.071 0 0 1-4.071 4.071H8.57A4.071 4.071 0 0 1 4.5 27.429V25.74c0-1.073.35-2.117.997-2.973C7.927 19.555 12.14 18 18 18zm0 3c-5.007 0-8.333 1.227-10.11 3.578-.253.334-.39.743-.39 1.163v1.688c0 .591.48 1.071 1.071 1.071H27.43c.591 0 1.071-.48 1.071-1.071V25.74c0-.42-.137-.829-.39-1.163C26.333 22.228 23.007 21 18 21zm0-18a6 6 0 1 1 0 12 6 6 0 0 1 0-12zm0 3a3 3 0 1 0 0 6 3 3 0 0 0 0-6z"/></g></svg><svg width="24" height="24" id="next_svg" y="1680"><g fill="none" fill-rule="evenodd"><path d="M0 0h24v24H0z"/><path fill="#000" fill-rule="nonzero" d="M19.707 11.293l-7-7a1 1 0 0 0-1.497 1.32l.083.094L16.586 11H5a1 1 0 0 0-.993.883L4 12a1 1 0 0 0 .883.993L5 13h11.586l-5.293 5.293a1 1 0 0 0-.083 1.32l.083.094a1 1 0 0 0 1.32.083l.094-.083 7-7a1 1 0 0 0 .083-1.32l-.083-.094z"/></g></svg><svg width="24" height="24" id="pause_svg" y="1704"><g fill="none" fill-rule="evenodd"><path d="M0 0h24v24H0z"/><path fill="#000" fill-rule="nonzero" d="M9 4a1 1 0 0 1 1 1v14a1 1 0 0 1-1 1H6a1 1 0 0 1-1-1V5a1 1 0 0 1 1-1h3zm9 0a1 1 0 0 1 1 1v14a1 1 0 0 1-1 1h-3a1 1 0 0 1-1-1V5a1 1 0 0 1 1-1h3z"/></g></svg><svg width="24" height="24" id="permissions_svg" y="1728"><g fill="none" fill-rule="evenodd"><path d="M0 0h24v24H0z"/><path fill="#000" fill-rule="nonzero" d="M6 3h14a3 3 0 0 1 2.995 2.824L23 6v2a1 1 0 0 1-.883.993L22 9h-3v9a3 3 0 0 1-2.824 2.995L16 21H4a3 3 0 0 1-3-3v-2a1 1 0 0 1 1-1h1V6a3 3 0 0 1 2.824-2.995L6 3h14H6zm7 14H3v1a1 1 0 0 0 1 1h9.17c-.11-.313-.17-.65-.17-1v-1zm4.17-12H6a1 1 0 0 0-.993.883L5 6v9h9a1 1 0 0 1 1 1v2c0 .524.405.959.887.995l.126.005a1 1 0 0 0 .98-.884L17 18V6c0-.28.038-.552.11-.81l.06-.19zM20 5l-.117.007a1 1 0 0 0-.876.876L19 6v1h2V6a1 1 0 0 0-.883-.993L20 5l-.117.007L20 5z"/></g></svg><svg width="24" height="24" id="phone_svg" y="1752"><g fill="none" fill-rule="evenodd"><path d="M0 0h24v24H0z"/><path fill="#000" fill-rule="nonzero" d="M7.236 12.566l2.356-2.615c.563-.562.855-1.399.758-2.244l-.259-2.245A2.783 2.783 0 0 0 7.326 3H5.785C4.2 3 2.907 4.324 3.005 5.906c.503 8.106 6.985 14.585 15.09 15.089 1.58.098 2.905-1.195 2.905-2.78v-1.54c.014-1.402-1.044-2.59-2.45-2.757l-2.267-.259a2.773 2.773 0 0 0-2.28.794l-2.569 2.311a14.207 14.207 0 0 1-3.96-3.842l-.238-.356zm6.059 5.214l2.083-1.877c.206-.203.439-.284.678-.257l2.263.258a.764.764 0 0 1 .681.76v1.551c0 .449-.37.81-.782.784a14.059 14.059 0 0 1-4.923-1.22zM6.22 10.706a14.057 14.057 0 0 1-1.219-4.924C4.976 5.369 5.336 5 5.785 5h1.54c.4 0 .733.296.78.694l.258 2.241a.773.773 0 0 1-.222.64l-1.92 2.13z"/></g></svg><svg width="24" height="24" id="photo_svg" y="1776"><g fill="none" fill-rule="evenodd"><path d="M0 0h24v24H0z"/><path fill="#000" fill-rule="nonzero" d="M19 2a3 3 0 0 1 3 3v14a3 3 0 0 1-3 3H5a3 3 0 0 1-3-3V5a3 3 0 0 1 3-3h14zM8.959 14.465l-.062-.045a.5.5 0 0 0-.634.092l-.054.072-3.329 5.409.06.005 7.506.002-3.387-5.419a.5.5 0 0 0-.1-.116l-.062-.045.062.045zm6.7-2.272a.5.5 0 0 0-.634.098l-.053.073-2.421 4.032L14.803 20H19a1 1 0 0 0 1-.966l-4.175-6.678a.5.5 0 0 0-.167-.163zM19 4H5a1 1 0 0 0-1 1v12.606l2.506-4.07a2.5 2.5 0 0 1 3.29-.904l.15.085a2.5 2.5 0 0 1 .7.645l.109.159.606.971 1.896-3.157a2.5 2.5 0 0 1 3.28-.94l.15.083a2.5 2.5 0 0 1 .723.656l.11.162L20 15.264V5a1 1 0 0 0-1-1z"/></g></svg><svg width="24" height="24" id="pin_svg" y="1800"><g fill="none" fill-rule="evenodd"><path d="M0 0h24v24H0z"/><path fill="#000" fill-rule="nonzero" d="M18.148 2l.145.007a1.5 1.5 0 0 1 .832 2.632l-2.166 1.856-.424 4.664 2.973 3.344A1.5 1.5 0 0 1 18.387 17h-5.388L13 22a1 1 0 0 1-.883.993L12 23a1 1 0 0 1-.993-.883L11 22v-5H5.612a1.5 1.5 0 0 1-1.12-2.497l2.972-3.344-.424-4.664-2.166-1.856A1.5 1.5 0 0 1 5.852 2h12.296zm-1.351 2H7.203l1.14.976a2 2 0 0 1 .69 1.338l.424 4.664a2 2 0 0 1-.497 1.51L6.727 15h10.546l-2.233-2.512a2 2 0 0 1-.497-1.51l.424-4.664a2 2 0 0 1 .69-1.338L16.798 4z"/></g></svg><svg width="24" height="24" id="pinnedchat_svg" y="1824"><g fill="none" fill-rule="evenodd"><path d="M0 0h24v24H0z"/><path fill="#000" fill-rule="nonzero" d="M15.508 5.431c.128.077.246.17.352.275l2.434 2.434a1.83 1.83 0 0 1-.353 2.864l-1.914 1.149c.255 1.52-.363 3.019-1.778 4.434a.83.83 0 0 1-1.174 0l-2.245-2.244-3.243 3.244a.83.83 0 0 1-1.089.074l-.085-.074a.83.83 0 0 1-.074-1.089l.074-.085 3.244-3.244-2.244-2.244a.83.83 0 0 1 0-1.173c1.344-1.345 2.765-1.97 4.207-1.81l.227.031 1.149-1.914a1.83 1.83 0 0 1 2.512-.628zm-1.089 1.482l-1.463 2.44a.83.83 0 0 1-.975.36c-.897-.3-1.804-.101-2.774.659l4.422 4.421.144-.193c.64-.897.794-1.743.514-2.581a.83.83 0 0 1 .36-.974l2.457-1.476.016-.014a.17.17 0 0 0 0-.241L14.687 6.88l-.033-.026a.17.17 0 0 0-.235.06z"/></g></svg><svg width="24" height="24" id="play_svg" y="1848"><g fill="none" fill-rule="evenodd"><path d="M0 0h24v24H0z"/><path fill="#000" fill-rule="nonzero" d="M6.196 2.797L19.04 11.36a.77.77 0 0 1 0 1.28L6.196 21.203A.77.77 0 0 1 5 20.563V3.437a.77.77 0 0 1 1.196-.64z"/></g></svg><svg width="24" height="24" id="radiooff_svg" y="1872"><g fill="none" fill-rule="evenodd"><path d="M0 0h24v24H0z"/><path fill="#000" fill-rule="nonzero" d="M12 2C6.5 2 2 6.5 2 12s4.5 10 10 10 10-4.5 10-10S17.5 2 12 2zm0 18c-4.4 0-8-3.6-8-8s3.6-8 8-8 8 3.6 8 8-3.6 8-8 8z"/></g></svg><svg width="24" height="24" id="radioon_svg" y="1896"><g fill="none" fill-rule="evenodd"><path d="M0 0h24v24H0z"/><path fill="#000" fill-rule="nonzero" d="M12 7c-2.8 0-5 2.2-5 5s2.2 5 5 5 5-2.2 5-5-2.2-5-5-5zm0-5C6.5 2 2 6.5 2 12s4.5 10 10 10 10-4.5 10-10S17.5 2 12 2zm0 18c-4.4 0-8-3.6-8-8s3.6-8 8-8 8 3.6 8 8-3.6 8-8 8z"/></g></svg><svg width="24" height="24" id="recent_svg" y="1920"><g fill="none" fill-rule="evenodd"><path d="M0 0h24v24H0z"/><path fill="#000" fill-rule="nonzero" d="M12 1c6.075 0 11 4.925 11 11s-4.925 11-11 11S1 18.075 1 12 5.925 1 12 1zm0 2a9 9 0 1 0 0 18 9 9 0 0 0 0-18zm0 2a1 1 0 0 1 .993.883L13 6v5.558l4.073 3.702a1 1 0 0 1-1.248 1.559l-.098-.08-4.072-3.701a2 2 0 0 1-.646-1.294L11 11.558V6a1 1 0 0 1 1-1z"/></g></svg><svg width="24" height="24" id="reply_svg" y="1944"><g fill="none" fill-rule="evenodd"><path d="M0 0h24v24H0z"/><path fill="#000" fill-rule="nonzero" d="M12.925 4.795a1.567 1.567 0 0 0-2.63-1.15L2.5 10.849c-.636.588-.675 1.579-.06 2.243l.06.059 7.795 7.204a1.567 1.567 0 0 0 2.63-1.15v-2.78c3.584.184 6.008 1.386 7.37 3.566l.141.235a1.227 1.227 0 0 0 2.29-.595c.104-7.385-3.132-11.494-9.48-11.982l-.32-.021V4.795zm-2 .99V8.6a1 1 0 0 0 1 1c5.31 0 8.15 2.457 8.702 7.654-1.996-1.909-4.918-2.854-8.702-2.854a1 1 0 0 0-1 1v2.814l-6.724-6.213 6.724-6.215z"/></g></svg><svg width="24" height="24" id="savedmessages_svg" y="1968"><g fill="none" fill-rule="evenodd"><path d="M0 0h24v24H0z"/><path fill="#000" fill-rule="nonzero" d="M17 2a4 4 0 0 1 4 4v14.254a2 2 0 0 1-3.302 1.519L12 16.889l-5.698 4.884A2 2 0 0 1 3 20.254V6a4 4 0 0 1 4-4h10zm0 2H7a2 2 0 0 0-2 2v14.254l5.698-4.884a2 2 0 0 1 2.604 0L19 20.254V6a2 2 0 0 0-2-2z"/></g></svg><svg width="24" height="24" id="search_svg" y="1992"><g fill="none" fill-rule="evenodd"><path d="M0 0h24v24H0z"/><path fill="#000" fill-rule="nonzero" d="M9.5 3a6.5 6.5 0 0 1 5.25 10.334l4.957 4.959a1 1 0 0 1-1.32 1.497l-.094-.083-4.96-4.957A6.5 6.5 0 1 1 9.5 3zm0 2a4.5 4.5 0 1 0 0 9 4.5 4.5 0 0 0 0-9z"/></g></svg><svg width="24" height="24" id="send2_svg" y="2016"><g fill="none" fill-rule="evenodd"><path d="M0 0h24v24H0z"/><path fill="#000" fill-rule="nonzero" d="M6.438 12l-.302-.046a2.174 2.174 0 0 1-1.793-1.684l-1.36-6.216a1.783 1.783 0 0 1 2.509-1.99L22.95 10.39a1.783 1.783 0 0 1 0 3.218L5.492 21.936a1.783 1.783 0 0 1-2.51-1.99l1.361-6.215a2.174 2.174 0 0 1 1.793-1.684L6.438 12zM5.032 4.06l1.265 5.782c.015.07.072.124.143.135l5.458.841a1.196 1.196 0 0 1 0 2.364l-5.458.842a.174.174 0 0 0-.143.134L5.032 19.94 21.677 12 5.032 4.06z"/></g></svg><svg width="24" height="24" id="send_svg" y="2040"><g fill="none" fill-rule="evenodd"><path d="M0 0h24v24H0z"/><path fill="#000" fill-rule="nonzero" d="M2.654 2.926L4.146 9.78c.121.556.59.97 1.157 1.021l10.893.984a.217.217 0 0 1 0 .433L5.303 13.2a1.304 1.304 0 0 0-1.157 1.021l-1.492 6.852a.87.87 0 0 0 1.222.97l19.535-9.258a.87.87 0 0 0 0-1.572L3.876 1.955a.87.87 0 0 0-1.222.971z"/></g></svg><svg width="19" height="14" id="sending_svg" y="2064"><g fill="none" fill-rule="evenodd"><path d="M0 0h19v14H0z"/><path fill="#000" fill-rule="nonzero" d="M10 .4a6.6 6.6 0 1 1 0 13.2A6.6 6.6 0 0 1 10 .4zm0 1.2a5.4 5.4 0 1 0 0 10.8 5.4 5.4 0 0 0 0-10.8zm-.554 5.74l-.021-.037-.047-.115-.02-.089-.006-.05L9.35 3.5a.65.65 0 0 1 1.293-.096l.007.096v3.231l1.81 1.81a.65.65 0 0 1 .068.838l-.068.08a.65.65 0 0 1-.84.07l-.08-.07-2.032-2.034-.032-.04-.03-.045z"/></g></svg><svg width="19" height="14" id="sendingerror_svg" y="2078"><g fill="none" fill-rule="evenodd"><path d="M0 0h19v14H0z"/><path fill="#000" fill-rule="nonzero" d="M10 .4a6.6 6.6 0 1 1 0 13.2A6.6 6.6 0 0 1 10 .4zm0 8.85a.75.75 0 1 0 0 1.5.75.75 0 0 0 0-1.5zm0-6.4a.65.65 0 0 0-.65.65v4a.65.65 0 1 0 1.3 0v-4a.65.65 0 0 0-.65-.65z"/></g></svg><svg width="24" height="24" id="settings_svg" y="2092"><g fill="none" fill-rule="evenodd"><path d="M0 0h24v24H0z"/><path fill="#000" fill-rule="nonzero" d="M13.454 1c1.05 0 1.994.8 2.171 1.834l.261 1.518a8.211 8.211 0 0 1 1.456.849l1.387-.516c.993-.368 2.158.062 2.68.981l.954 1.68c.518.912.301 2.134-.496 2.812l-1.147.976a7.94 7.94 0 0 1 0 1.732l1.147.975c.8.68 1.013 1.901.496 2.813l-.954 1.68c-.522.92-1.69 1.348-2.68.98l-1.387-.515c-.453.331-.94.616-1.456.85l-.26 1.517C15.447 22.196 14.5 23 13.453 23h-1.908c-1.049 0-1.993-.8-2.171-1.834l-.261-1.518a8.228 8.228 0 0 1-1.456-.849l-1.387.516c-.992.368-2.158-.062-2.68-.981l-.954-1.68c-.518-.912-.301-2.134.496-2.813l1.147-.975a7.919 7.919 0 0 1 0-1.732l-1.147-.976c-.8-.68-1.013-1.901-.496-2.812l.954-1.68c.523-.92 1.691-1.348 2.68-.98l1.387.515c.363-.265.747-.5 1.15-.703l.306-.146.261-1.518C9.552 1.803 10.5 1 11.546 1h1.908zm0 2h-1.908c-.07 0-.187.1-.2.173l-.355 2.061a1 1 0 0 1-.637.768 6.23 6.23 0 0 0-1.87 1.093 1 1 0 0 1-.996.176L5.574 6.56c-.067-.025-.205.025-.244.094l-.954 1.68c-.044.077-.014.243.054.301l1.565 1.332a1 1 0 0 1 .337.93 6.529 6.529 0 0 0-.1 1.103c0 .35.033.71.1 1.103a1 1 0 0 1-.337.93l-1.566 1.331c-.066.057-.096.226-.053.302l.954 1.68c.04.07.175.12.244.094l1.914-.711a1 1 0 0 1 .997.176 6.23 6.23 0 0 0 1.87 1.093 1 1 0 0 1 .636.768l.355 2.06c.013.077.127.174.2.174h1.908c.07 0 .188-.1.2-.173l.355-2.061a1 1 0 0 1 .637-.768 6.213 6.213 0 0 0 1.87-1.093 1 1 0 0 1 .996-.176l1.914.711c.068.025.205-.025.244-.094l.954-1.68c.044-.077.015-.244-.053-.302l-1.566-1.331a1 1 0 0 1-.337-.932c.067-.387.1-.75.1-1.101 0-.352-.033-.714-.1-1.101a1 1 0 0 1 .337-.932l1.565-1.332c.067-.057.097-.225.054-.302l-.954-1.68c-.039-.069-.175-.119-.244-.093l-1.914.711a1 1 0 0 1-.997-.176 6.213 6.213 0 0 0-1.87-1.093 1 1 0 0 1-.636-.768l-.355-2.061c-.013-.076-.127-.173-.2-.173zm-.954 7a2 2 0 1 1 0 4 2 2 0 0 1 0-4z"/></g></svg><svg width="24" height="24" id="smallscreen_svg" y="2116"><g fill="none" fill-rule="evenodd"><path d="M0 0h24v24H0z"/><path fill="#000" fill-rule="nonzero" d="M15 14h4a1 1 0 0 1 .117 1.993L19 16h-3v3a1 1 0 0 1-1.993.117L14 19v-4a1 1 0 0 1 .883-.993L15 14h4-4zm-6 0a1 1 0 0 1 1 1v4a1 1 0 0 1-2 0v-3H5a1 1 0 0 1 0-2h4zm6-10a1 1 0 0 1 1 1v3h3a1 1 0 0 1 0 2h-4a1 1 0 0 1-1-1V5a1 1 0 0 1 1-1zM9 4a1 1 0 0 1 .993.883L10 5v4a1 1 0 0 1-.883.993L9 10H5a1 1 0 0 1-.117-1.993L5 8h3V5a1 1 0 0 1 1-1z"/></g></svg><svg width="24" height="24" id="smile_svg" y="2140"><g fill="none" fill-rule="evenodd"><path d="M0 0h24v24H0z"/><path fill="#000" fill-rule="nonzero" d="M12 1c6.075 0 11 4.925 11 11s-4.925 11-11 11S1 18.075 1 12 5.925 1 12 1zm0 2a9 9 0 1 0 0 18 9 9 0 0 0 0-18zM6.666 13.65a.95.95 0 0 1 1.278.415A4.55 4.55 0 0 0 12 16.55a4.55 4.55 0 0 0 4.053-2.479.95.95 0 0 1 1.69.866A6.449 6.449 0 0 1 12 18.45a6.449 6.449 0 0 1-5.748-3.522.95.95 0 0 1 .414-1.278zM8.75 8C9.44 8 10 8.672 10 9.5S9.44 11 8.75 11 7.5 10.328 7.5 9.5 8.06 8 8.75 8zm6.5 0c.69 0 1.25.672 1.25 1.5s-.56 1.5-1.25 1.5S14 10.328 14 9.5 14.56 8 15.25 8z"/></g></svg><svg width="24" height="24" id="sport_svg" y="2164"><g fill="none" fill-rule="evenodd"><path d="M0 0h24v24H0z"/><path fill="#000" fill-rule="nonzero" d="M12 1c6.075 0 11 4.925 11 11s-4.925 11-11 11S1 18.075 1 12 5.925 1 12 1zm2.845 2.459l-2.33 1.398a1 1 0 0 1-.907.063l-.122-.063-2.33-1.398a9.018 9.018 0 0 0-4.288 3.05c.03.05.056.105.076.161l.026.087.5 2a1 1 0 0 1-.177.852l-.086.098-2 2a1.002 1.002 0 0 1-.204.158L3 12c0 2.305.866 4.407 2.291 6H7.5a1 1 0 0 1 .857.486L9.685 20.7c.739.196 1.515.3 2.315.3s1.576-.104 2.315-.3l1.328-2.214a1 1 0 0 1 .727-.477L16.5 18h2.209A8.966 8.966 0 0 0 21 12l-.002-.135a1.001 1.001 0 0 1-.205-.158l-2-2a1 1 0 0 1-.263-.95l.5-2c.022-.089.056-.172.099-.248a9.004 9.004 0 0 0-3.965-2.937l-.32-.113zM12.6 7.2l4 3a1 1 0 0 1 .314 1.206l-2 4.5A1 1 0 0 1 14 16.5h-4a1 1 0 0 1-.914-.594l-2-4.5A1 1 0 0 1 7.4 10.2l4-3a1 1 0 0 1 1.2 0zM12 9.25l-2.763 2.072L10.65 14.5h2.7l1.413-3.178L12 9.25z"/></g></svg><svg width="24" height="24" id="stop_svg" y="2188"><g fill="none" fill-rule="evenodd"><path d="M0 0h24v24H0z"/><path fill="#000" fill-rule="nonzero" d="M12 1c6.075 0 11 4.925 11 11s-4.925 11-11 11S1 18.075 1 12 5.925 1 12 1zm0 2a9 9 0 1 0 0 18 9 9 0 0 0 0-18zm-4 8h8a1 1 0 0 1 .117 1.993L16 13H8a1 1 0 0 1-.117-1.993L8 11h8-8z"/></g></svg><svg width="24" height="24" id="unarchive_svg" y="2212"><g fill="none" fill-rule="evenodd"><path d="M0 0h24v24H0z"/><path fill="#000" fill-rule="nonzero" d="M7.5 1h9a4 4 0 0 1 3.053 1.416l.147.184 1.5 2a4 4 0 0 1 .792 2.141L22 7v11a4 4 0 0 1-4 4H6a4 4 0 0 1-4-4V7a4 4 0 0 1 .651-2.188L2.8 4.6l1.5-2a4 4 0 0 1 2.965-1.593L7.5 1h9-9zM18 7H6a2 2 0 0 0-2 2v9a2 2 0 0 0 2 2h12a2 2 0 0 0 2-2V9a2 2 0 0 0-2-2zm-5.293 3.793l3 3a1 1 0 0 1-1.414 1.414L12 12.914l-2.293 2.293a1 1 0 1 1-1.414-1.414l3-3a1 1 0 0 1 1.414 0zM16.5 3h-9a2 2 0 0 0-1.492.668L5.9 3.8 4.88 5.159A4.002 4.002 0 0 1 6 5h12c.388 0 .764.055 1.119.159L18.1 3.8a2 2 0 0 0-1.43-.793L16.5 3z"/></g></svg><svg width="24" height="24" id="unlock_svg" y="2236"><g fill="none" fill-rule="evenodd"><path d="M0 0h24v24H0z"/><path fill="#000" fill-rule="nonzero" d="M17.783 1.005L18 1a5 5 0 0 1 4.995 4.783L23 6v3a1 1 0 0 1-1.993.117L21 9V6a3 3 0 0 0-5.995-.176L15 6v2a3 3 0 0 1 3 3v8a3 3 0 0 1-3 3H5a3 3 0 0 1-3-3v-8a3 3 0 0 1 3-3h8V6a5 5 0 0 1 4.783-4.995zM15 10H5a1 1 0 0 0-1 1v8a1 1 0 0 0 1 1h10a1 1 0 0 0 1-1v-8a1 1 0 0 0-1-1zm-5 3.5a1.5 1.5 0 1 1 0 3 1.5 1.5 0 0 1 0-3z"/></g></svg><svg width="24" height="24" id="unmute_svg" y="2260"><g fill="none" fill-rule="evenodd"><path d="M0 0h24v24H0z"/><path fill="#000" fill-rule="nonzero" d="M11 20h2a1 1 0 0 1 .117 1.993L13 22h-2a1 1 0 0 1-.117-1.993L11 20h2-2zm1-18a7 7 0 0 1 7 7v5.697l1.832 2.748A1 1 0 0 1 20 19H4a1 1 0 0 1-.832-1.555L5 14.697V9a7 7 0 0 1 7-7zm0 2a5 5 0 0 0-5 5v5.697a2 2 0 0 1-.336 1.11L5.87 17H18.13l-.795-1.193a2 2 0 0 1-.336-1.11V9a5 5 0 0 0-5-5z"/></g></svg><svg width="24" height="24" id="unpin_svg" y="2284"><g fill="none" fill-rule="evenodd"><path d="M0 0h24v24H0z"/><path fill="#000" fill-rule="nonzero" d="M3.219 2.375l.085-.093a1 1 0 0 1 1.32-.063l.094.085 16.5 17a1 1 0 0 1-1.343 1.477l-.093-.085-3.604-3.712-.061.01L16 17h-3v5a1 1 0 0 1-.883.993L12 23a1 1 0 0 1-.993-.883L11 22v-5H5.613a1.5 1.5 0 0 1-1.219-2.374l.098-.123 2.973-3.344-.317-3.48-3.866-3.983a1 1 0 0 1-.063-1.32l.085-.094-.085.093zm6.145 7.587l.093 1.016a2 2 0 0 1-.382 1.368l-.115.142-2.233 2.511 7.526.001-4.889-5.038zM18.148 2a1.5 1.5 0 0 1 1.082 2.54l-.105.099-2.166 1.856-.328 3.606a1 1 0 0 1-1.995-.064l.004-.117.327-3.606a2 2 0 0 1 .564-1.22l.127-.118L16.797 4H9a1 1 0 0 1-.117-1.993L9 2h9.148z"/></g></svg><svg width="24" height="24" id="unread_svg" y="2308"><g fill="none" fill-rule="evenodd"><path d="M0 0h24v24H0z"/><path fill="#000" fill-rule="nonzero" d="M6 2h12a4 4 0 0 1 3.995 3.8L22 6v4a1 1 0 0 1-1.993.117L20 10V6a2 2 0 0 0-1.85-1.995L18 4H6a2 2 0 0 0-1.995 1.85L4 6v13.586l2.205-2.205a1.3 1.3 0 0 1 .773-.373L7.124 17H13a1 1 0 0 1 .117 1.993L13 19H7.414l-3.536 3.536a1.1 1.1 0 0 1-1.871-.653L2 21.759V6a4 4 0 0 1 3.8-3.995L6 2h12H6zm13 10a4 4 0 1 1 0 8 4 4 0 0 1 0-8zm0 2a2 2 0 1 0 0 4 2 2 0 0 0 0-4z"/></g></svg><svg width="24" height="24" id="up_svg" y="2332"><g fill="none" fill-rule="evenodd"><path d="M0 0h24v24H0z"/><path fill="#000" fill-rule="nonzero" d="M12 9.414l6.293 6.293a1 1 0 0 0 1.414-1.414l-7-7a1 1 0 0 0-1.414 0l-7 7a1 1 0 0 0 1.414 1.414L12 9.414z"/></g></svg><svg width="24" height="24" id="user_svg" y="2356"><g fill="none" fill-rule="evenodd"><path d="M0 0h24v24H0z"/><path fill="#000" fill-rule="nonzero" d="M12 12c3.907 0 6.715 1.036 8.335 3.179.432.57.665 1.266.665 1.981v1.126C21 19.785 19.785 21 18.286 21H5.714A2.714 2.714 0 0 1 3 18.286V17.16c0-.715.233-1.41.665-1.981C5.285 13.036 8.093 12 12 12zm0 2c-3.338 0-5.555.818-6.74 2.385-.169.223-.26.496-.26.775v1.126c0 .394.32.714.714.714h12.572c.394 0 .714-.32.714-.714V17.16c0-.28-.091-.552-.26-.775C17.555 14.818 15.338 14 12 14zm0-12a4 4 0 1 1 0 8 4 4 0 0 1 0-8zm0 2a2 2 0 1 0 0 4 2 2 0 0 0 0-4z"/></g></svg><svg width="24" height="24" id="username_svg" y="2380"><g fill="none" fill-rule="evenodd"><path d="M0 0h24v24H0z"/><path fill="#000" fill-rule="nonzero" d="M12 1c6.075 0 11 4.925 11 11 0 3.253-1.642 5.408-3.958 5.504-1.497.063-2.8-.774-3.499-2.138a4.889 4.889 0 1 1-.542-7.226L15 8a1 1 0 0 1 1.993-.117L17 8v5c0 1.588.906 2.55 1.958 2.506C20.091 15.459 21 14.266 21 12a9 9 0 1 0-6.66 8.693 1 1 0 0 1 .519 1.932c-.925.248-1.884.375-2.859.375-6.075 0-11-4.925-11-11S5.925 1 12 1zm0 8.111a2.889 2.889 0 1 0 0 5.778 2.889 2.889 0 0 0 0-5.778z"/></g></svg></svg>
