<?xml version="1.0"?>
<!--Icons from directory ""-->
<svg xmlns="http://www.w3.org/2000/svg" width="144" height="388" viewBox="0 0 144 388"><svg width="19" height="14" id="1check_svg" y="0"><g fill="none" fill-rule="evenodd"><path d="M0 0h19v14H0z"/><path fill="#000" fill-rule="nonzero" d="M7.968 10.05l6.543-7.478a.65.65 0 0 1 1.041.771l-.063.085-7 8a.65.65 0 0 1-.864.103l-.085-.071-3-3a.65.65 0 0 1 .84-.988l.08.068 2.508 2.51 6.543-7.478-6.543 7.477z"/></g></svg><svg width="19" height="14" id="2checks_svg" y="14"><g fill="none" fill-rule="evenodd"><path d="M0 0h19v14H0z"/><path fill="#000" fill-rule="nonzero" d="M4.968 10.05l6.543-7.478a.65.65 0 0 1 1.041.771l-.063.085-7 8a.65.65 0 0 1-.864.103l-.085-.071-3-3a.65.65 0 0 1 .84-.988l.08.068 2.508 2.51 6.543-7.478-6.543 7.477zm5 0l6.543-7.478a.65.65 0 0 1 1.041.771l-.063.085-7 8a.65.65 0 0 1-.864.103l-.085-.071-1-1a.65.65 0 0 1 .84-.988l.08.068.508.51 6.543-7.478-6.543 7.477z"/></g></svg><svg width="24" height="24" id="channel_svg" y="28"><g fill="none" fill-rule="evenodd"><path d="M0 0h24v24H0z"/><path fill="#000" fill-rule="nonzero" d="M18.5 1.678a2.5 2.5 0 0 1 2.5 2.5v15.644a2.5 2.5 0 0 1-4.09 1.93L12 17.705V19.5a3 3 0 0 1-2.824 2.995L9 22.5a3 3 0 0 1-2.995-2.824L6 19.5v-2.6A5.002 5.002 0 0 1 7 7h4.141l5.77-4.751a2.5 2.5 0 0 1 1.589-.57zM8 17V19.5a1 1 0 0 0 1.993.117L10 19.5V17H8v2.5V17zM18.5 3.68a.5.5 0 0 0-.318.114l-5.77 4.75a2 2 0 0 1-1.27.457H7a3 3 0 0 0 0 6h4.141a2 2 0 0 1 1.272.456l5.77 4.751a.5.5 0 0 0 .817-.385V4.178a.5.5 0 0 0-.5-.5z"/></g></svg><svg width="144" height="144" id="chatsplaceholder_svg" y="52"><g fill="none" fill-rule="evenodd"><path d="M0 0h144v144H0z"/><path fill="#000" fill-rule="nonzero" d="M132 42a6.001 6.001 0 0 1 5.96 5.3l.04.7v88.551a6.6 6.6 0 0 1-10.71 5.164l-.557-.497L105.515 120H48a6 6 0 0 1-.7-11.96l.7-.04h48c16.133 0 29.291-12.734 29.973-28.699L126 78V48l.04-.7A6.001 6.001 0 0 1 132 42zM96 6c9.941 0 18 8.059 18 18v54c0 9.941-8.059 18-18 18H38.485l-21.218 21.218A6.6 6.6 0 0 1 6 112.551V24c0-9.941 8.059-18 18-18h72z"/></g></svg><svg width="24" height="24" id="down_svg" y="196"><g fill="none" fill-rule="evenodd"><path d="M0 0h24v24H0z"/><path fill="#000" fill-rule="nonzero" d="M12 14.586l6.293-6.293a1 1 0 0 1 1.414 1.414l-7 7a1 1 0 0 1-1.414 0l-7-7a1 1 0 0 1 1.414-1.414L12 14.586z"/></g></svg><svg width="24" height="24" id="edit_svg" y="220"><g fill="none" fill-rule="evenodd"><path d="M0 0h24v24H0z"/><path fill="#000" fill-rule="nonzero" d="M7.707 20.707A1 1 0 0 1 7 21H4a1 1 0 0 1-1-1v-3a1 1 0 0 1 .293-.707L16.586 3a2 2 0 0 1 2.701-.117l.127.117L21 4.586a2 2 0 0 1 .117 2.701L21 7.414 7.707 20.707zM5 17.414V19h1.586l10-10L15 7.414l-10 10zm13-13L16.414 6 18 7.585 19.586 6 18 4.414z"/></g></svg><svg width="24" height="24" id="eye1_svg" y="244"><g fill="none" fill-rule="evenodd"><path d="M0 0h24v24H0z"/><path fill="#000" fill-rule="nonzero" d="M12.004 5.5C17.85 5.5 22 10.46 22 12s-4.127 6.5-9.996 6.5C6.179 18.5 2 13.54 2 12s4.209-6.5 10.004-6.5zM12 8a4 4 0 1 0 0 8 4 4 0 0 0 0-8zm0 2.5a1.5 1.5 0 1 1 0 3 1.5 1.5 0 0 1 0-3z"/></g></svg><svg width="24" height="24" id="eye2_svg" y="268"><g fill="none" fill-rule="evenodd"><path d="M0 0h24v24H0z"/><path fill="#000" fill-rule="nonzero" d="M3.247 4.341a1 1 0 0 1 1.312-.17l.1.076 16 14a1 1 0 0 1-1.218 1.582l-.1-.076-2.663-2.33c-1.366.646-2.944 1.077-4.674 1.077C6.179 18.5 2 13.54 2 12c0-.865 1.327-2.807 3.516-4.345L3.34 5.753a1 1 0 0 1-.094-1.412zM8 12a4 4 0 0 0 6.256 3.304l-2.074-1.815a1.5 1.5 0 0 1-1.681-1.472l-2.075-1.815A3.983 3.983 0 0 0 8 12zm4.004-6.5C17.85 5.5 22 10.46 22 12c0 .636-.703 1.854-1.94 3.065l-4.093-3.58a4.001 4.001 0 0 0-3.765-3.48L11.984 8l-2.5-2.187c.797-.199 1.64-.313 2.52-.313z"/></g></svg><svg width="24" height="24" id="group_svg" y="292"><g fill="none" fill-rule="evenodd"><path d="M0 0h24v24H0z"/><path fill="#000" fill-rule="nonzero" d="M8 13c3.323 0 5.753.834 7.222 2.57.502.593.778 1.345.778 2.123v.807a2.5 2.5 0 0 1-2.5 2.5h-11A2.5 2.5 0 0 1 0 18.5v-.807c0-.778.276-1.53.778-2.123C2.247 13.834 4.678 13 8 13zm9.952 1.034h.116c2.153.146 3.813.754 4.945 1.862.579.566.926 1.325.98 2.128l.007.22v.506a2.25 2.25 0 0 1-2.096 2.245L21.75 21H19a1 1 0 0 1-.117-1.993L19 19h2.75a.25.25 0 0 0 .243-.193L22 18.75v-.507c0-.345-.14-.676-.386-.918-.75-.734-1.965-1.179-3.68-1.295a1 1 0 0 1 .018-1.996zM8 15c-2.789 0-4.665.644-5.696 1.862a1.286 1.286 0 0 0-.304.83v.808a.5.5 0 0 0 .5.5h11a.5.5 0 0 0 .5-.5v-.807c0-.305-.108-.599-.304-.831C12.665 15.644 10.789 15 8 15zm9-10a3.5 3.5 0 1 1 0 7 3.5 3.5 0 0 1 0-7zM8 3a4 4 0 1 1 0 8 4 4 0 0 1 0-8zm9 4a1.5 1.5 0 1 0 0 3 1.5 1.5 0 0 0 0-3zM8 5a2 2 0 1 0 0 4 2 2 0 0 0 0-4z"/></g></svg><svg width="24" height="24" id="search_svg" y="316"><g fill="none" fill-rule="evenodd"><path d="M0 0h24v24H0z"/><path fill="#000" fill-rule="nonzero" d="M9.5 3a6.5 6.5 0 0 1 5.25 10.334l4.957 4.959a1 1 0 0 1-1.32 1.497l-.094-.083-4.96-4.957A6.5 6.5 0 1 1 9.5 3zm0 2a4.5 4.5 0 1 0 0 9 4.5 4.5 0 0 0 0-9z"/></g></svg><svg width="24" height="24" id="up_svg" y="340"><g fill="none" fill-rule="evenodd"><path d="M0 0h24v24H0z"/><path fill="#000" fill-rule="nonzero" d="M12 9.414l6.293 6.293a1 1 0 0 0 1.414-1.414l-7-7a1 1 0 0 0-1.414 0l-7 7a1 1 0 0 0 1.414 1.414L12 9.414z"/></g></svg><svg width="24" height="24" id="user_svg" y="364"><g fill="none" fill-rule="evenodd"><path d="M0 0h24v24H0z"/><path fill="#000" fill-rule="nonzero" d="M12 12c3.907 0 6.715 1.036 8.335 3.179.432.57.665 1.266.665 1.981v1.126C21 19.785 19.785 21 18.286 21H5.714A2.714 2.714 0 0 1 3 18.286V17.16c0-.715.233-1.41.665-1.981C5.285 13.036 8.093 12 12 12zm0 2c-3.338 0-5.555.818-6.74 2.385-.169.223-.26.496-.26.775v1.126c0 .394.32.714.714.714h12.572c.394 0 .714-.32.714-.714V17.16c0-.28-.091-.552-.26-.775C17.555 14.818 15.338 14 12 14zm0-12a4 4 0 1 1 0 8 4 4 0 0 1 0-8zm0 2a2 2 0 1 0 0 4 2 2 0 0 0 0-4z"/></g></svg></svg>
